<svg width="64" height="45" viewBox="0 0 64 45" fill="none" xmlns="http://www.w3.org/2000/svg">
<path d="M45.692 22.5661L34.5166 11.2822L45.6903 0L45.692 22.5661Z" fill="#EB251B"/>
<path d="M39.3047 22.6538L50.2713 33.7303L39.3064 44.8001L39.3047 22.6538Z" fill="#F28B00"/>
<path d="M60.3669 16.2673V22.8171L53.865 16.2673H50.2969V29.1579H53.9636L53.9619 22.5541L60.5172 29.1579H64.0002V16.2673H60.3669Z" fill="white"/>
<path d="M5.10431 16.0129H6.34657C7.96452 16.1377 9.34203 16.4968 10.5192 17.0498V20.7133C9.13165 20.0979 7.78586 19.5433 5.8156 19.4202C5.16942 19.3797 4.2995 19.4269 4.26277 19.8518C4.21602 20.371 5.56181 20.6813 5.94918 20.7993C8.43705 21.5765 11.6696 22.1716 11.3624 25.5839C10.965 29.9892 3.45129 30.2809 0 28.0386V24.161C1.46267 25.0798 3.69507 26.2195 6.16958 25.9717C6.58868 25.9295 7.13467 25.7255 7.14469 25.4103C7.17141 24.719 4.76201 24.2622 4.12752 24.0733C2.00031 23.4428 0.210384 22.5476 0 20.108V19.8939C0.202035 17.1425 2.31255 16.249 5.10431 16.0129Z" fill="white"/>
<path d="M11.5498 19.6729H15.5037V29.1562H19.4308V19.6729H23.4265V16.2673H11.5498V19.6729Z" fill="white"/>
<path d="M24.4678 16.2673V29.1579H34.5829V25.7068H28.3949V24.2687H34.5829V21.1649H28.3949V19.6746H34.5829V16.2673H24.4678Z" fill="white"/>
</svg>
